<svg width="50" height="50" viewBox="0 0 50 50" fill="none" xmlns="http://www.w3.org/2000/svg">
<rect width="50" height="50" rx="7" fill="#F2F2F2"/>
<path d="M20.5 21C21.2956 21 22.0587 20.6839 22.6213 20.1213C23.1839 19.5587 23.5 18.7956 23.5 18C23.5 17.2044 23.1839 16.4413 22.6213 15.8787C22.0587 15.3161 21.2956 15 20.5 15C19.7044 15 18.9413 15.3161 18.3787 15.8787C17.8161 16.4413 17.5 17.2044 17.5 18C17.5 18.7956 17.8161 19.5587 18.3787 20.1213C18.9413 20.6839 19.7044 21 20.5 21ZM15 23.768C15 22.79 15.791 22 16.768 22H21.535C21.1834 22.6078 20.9988 23.2978 21 24C20.9993 24.5676 21.1198 25.1288 21.3532 25.6461C21.5867 26.1635 21.9279 26.625 22.354 27H21.268C20.7044 27 20.1542 27.172 19.6909 27.4929C19.2276 27.8138 18.8732 28.2684 18.675 28.796C17.177 28.43 16.248 27.613 15.701 26.703C15 25.536 15 24.336 15 24.127V23.768ZM29 24C29.0012 23.2978 28.8166 22.6078 28.465 22H33.232C34.21 22 35 22.791 35 23.768V24.128C35 24.335 35 25.536 34.3 26.703C33.752 27.613 32.823 28.43 31.325 28.796C31.1269 28.2683 30.7726 27.8136 30.3092 27.4927C29.8459 27.1718 29.2956 26.9999 28.732 27H27.646C28.0721 26.625 28.4133 26.1635 28.6468 25.6461C28.8802 25.1288 29.0007 24.5676 29 24ZM32.5 18C32.5 18.7956 32.1839 19.5587 31.6213 20.1213C31.0587 20.6839 30.2956 21 29.5 21C28.7044 21 27.9413 20.6839 27.3787 20.1213C26.8161 19.5587 26.5 18.7956 26.5 18C26.5 17.2044 26.8161 16.4413 27.3787 15.8787C27.9413 15.3161 28.7044 15 29.5 15C30.2956 15 31.0587 15.3161 31.6213 15.8787C32.1839 16.4413 32.5 17.2044 32.5 18ZM19.5 29.768C19.5 28.79 20.291 28 21.268 28H28.732C29.709 28 30.5 28.791 30.5 29.768V30.128C30.5 30.335 30.5 31.536 29.8 32.703C29.057 33.937 27.613 35 25 35C22.387 35 20.942 33.937 20.2 32.703C19.5 31.536 19.5 30.336 19.5 30.127V29.768ZM25 27C25.394 27 25.7841 26.9224 26.1481 26.7716C26.512 26.6209 26.8427 26.3999 27.1213 26.1213C27.3999 25.8427 27.6209 25.512 27.7716 25.1481C27.9224 24.7841 28 24.394 28 24C28 23.606 27.9224 23.2159 27.7716 22.8519C27.6209 22.488 27.3999 22.1573 27.1213 21.8787C26.8427 21.6001 26.512 21.3791 26.1481 21.2284C25.7841 21.0776 25.394 21 25 21C24.2044 21 23.4413 21.3161 22.8787 21.8787C22.3161 22.4413 22 23.2044 22 24C22 24.7956 22.3161 25.5587 22.8787 26.1213C23.4413 26.6839 24.2044 27 25 27Z" fill="#3D3D3D"/>
</svg>
