<svg width="50" height="50" viewBox="0 0 50 50" fill="none" xmlns="http://www.w3.org/2000/svg">
<rect width="50" height="50" rx="7" fill="#F2F2F2"/>
<path d="M25 19H17C16.4696 19 15.9609 19.2107 15.5858 19.5858C15.2107 19.9609 15 20.4696 15 21V25C15 25.5304 15.2107 26.0391 15.5858 26.4142C15.9609 26.7893 16.4696 27 17 27H18V31C18 31.2652 18.1054 31.5196 18.2929 31.7071C18.4804 31.8946 18.7348 32 19 32H21C21.2652 32 21.5196 31.8946 21.7071 31.7071C21.8946 31.5196 22 31.2652 22 31V27H25L30 31V15L25 19ZM34.5 23C34.5 24.71 33.54 26.26 32 27V19C33.53 19.75 34.5 21.3 34.5 23Z" fill="#3D3D3D"/>
</svg>
