<svg width="50" height="50" viewBox="0 0 50 50" fill="none" xmlns="http://www.w3.org/2000/svg">
<rect width="50" height="50" rx="7" fill="#F2F2F2"/>
<path d="M18.5 20C17.671 20 17 20.67 17 21.5V30.493C17 31.323 17.671 31.993 18.5 31.993H22.232L24.084 34.768C24.1297 34.8365 24.1915 34.8926 24.2641 34.9315C24.3367 34.9703 24.4177 34.9906 24.5 34.9906C24.5823 34.9906 24.6633 34.9703 24.7359 34.9315C24.8085 34.8926 24.8703 34.8365 24.916 34.768L26.767 31.993H30.5C31.329 31.993 32 31.323 32 30.493V21.5C32 20.67 31.329 20 30.5 20H18.5Z" fill="#3D3D3D"/>
</svg>
