<svg width="50" height="50" viewBox="0 0 50 50" fill="none" xmlns="http://www.w3.org/2000/svg">
<rect width="50" height="50" rx="7" fill="#F2F2F2"/>
<path d="M32.6375 19.3161L32.6306 19.3239L26.7684 25.5834V30.3862C26.7687 30.6146 26.7125 30.8395 26.6049 31.041C26.4972 31.2425 26.3414 31.4141 26.1513 31.5408L23.3816 33.3878C23.1729 33.5268 22.9303 33.6066 22.6798 33.6185C22.4293 33.6305 22.1803 33.5741 21.9593 33.4556C21.7383 33.3371 21.5536 33.1607 21.425 32.9454C21.2964 32.7302 21.2287 32.484 21.229 32.2332V25.5834L15.3669 19.3239L15.3599 19.3161C15.1797 19.1178 15.0609 18.8714 15.0179 18.6068C14.9749 18.3422 15.0097 18.0709 15.1179 17.8257C15.2261 17.5805 15.4032 17.372 15.6276 17.2254C15.852 17.0788 16.1141 17.0005 16.3821 17H31.6153C31.8835 17 32.146 17.078 32.3708 17.2243C32.5956 17.3707 32.773 17.5792 32.8816 17.8245C32.9901 18.0698 33.0251 18.3414 32.9822 18.6062C32.9393 18.871 32.8205 19.1176 32.6401 19.3161H32.6375Z" fill="#3D3D3D"/>
</svg>
