<svg width="50" height="50" viewBox="0 0 50 50" fill="none" xmlns="http://www.w3.org/2000/svg">
<rect width="50" height="50" rx="7" fill="#F2F2F2"/>
<path d="M23 19V18H27V19H29V18C28.9995 17.4697 28.7886 16.9613 28.4136 16.5864C28.0387 16.2114 27.5303 16.0005 27 16H23C22.4697 16.0005 21.9613 16.2114 21.5864 16.5864C21.2114 16.9613 21.0005 17.4697 21 18V19H23ZM21.837 27L15 24.72V31C15.0008 31.7954 15.3171 32.558 15.8796 33.1204C16.442 33.6829 17.2046 33.9992 18 34H32C32.7954 33.9992 33.558 33.6829 34.1204 33.1204C34.6829 32.558 34.9992 31.7954 35 31V24.72L28.163 27H21.837Z" fill="#3D3D3D"/>
<path opacity="0.5" d="M32 19H18C17.2044 19 16.4413 19.3161 15.8787 19.8787C15.3161 20.4413 15 21.2044 15 22V24.72L21.837 27H28.163L35 24.72V22C35 21.2044 34.6839 20.4413 34.1213 19.8787C33.5587 19.3161 32.7956 19 32 19Z" fill="#B3B3B3"/>
</svg>
