<svg width="50" height="50" viewBox="0 0 50 50" fill="none" xmlns="http://www.w3.org/2000/svg">
<rect width="50" height="50" rx="7" fill="#F2F2F2"/>
<path d="M34.9782 26.2119C35.0193 26.0212 35.0037 25.8227 34.9333 25.6407C34.863 25.4588 34.7409 25.3014 34.5822 25.1879L20.5822 15.1879C20.4247 15.0746 20.2376 15.0097 20.0437 15.001C19.8499 14.9923 19.6577 15.0403 19.4907 15.139C19.3236 15.2377 19.1889 15.383 19.1031 15.557C19.0172 15.731 18.9839 15.9263 19.0072 16.1189L21.0072 33.1189C21.0302 33.3138 21.1101 33.4976 21.2368 33.6475C21.3636 33.7973 21.5316 33.9065 21.72 33.9615C21.9084 34.0165 22.1088 34.0149 22.2963 33.9568C22.4837 33.8988 22.6499 33.7868 22.7742 33.6349L26.3862 29.2189L29.7632 34.6789L31.4642 33.6269L28.1072 28.1989L34.1962 26.9809C34.3876 26.9435 34.5637 26.8506 34.7027 26.7139C34.8418 26.5772 34.9376 26.4026 34.9782 26.2119Z" fill="#3D3D3D"/>
</svg>
