<svg width="34" height="30" viewBox="0 0 34 30" fill="none" xmlns="http://www.w3.org/2000/svg">
<path d="M16.9724 0C18.2275 0 19.4312 0.498588 20.3187 1.38608C21.2062 2.27357 21.7048 3.47727 21.7048 4.73238C21.7048 5.98748 21.2062 7.19118 20.3187 8.07867C19.4312 8.96616 18.2275 9.46475 16.9724 9.46475C15.717 9.46475 14.513 8.96605 13.6253 8.07836C12.7376 7.19067 12.2389 5.9867 12.2389 4.73131C12.2389 3.47593 12.7376 2.27196 13.6253 1.38427C14.513 0.496575 15.717 0 16.9724 0ZM16.9724 2.125C16.2809 2.125 15.6177 2.3997 15.1287 2.88868C14.6397 3.37766 14.365 4.04086 14.365 4.73238C14.365 5.42389 14.6397 6.08709 15.1287 6.57607C15.6177 7.06505 16.2809 7.33975 16.9724 7.33975C17.6642 7.33975 18.3276 7.06493 18.8168 6.57576C19.306 6.08658 19.5808 5.42311 19.5808 4.73131C19.5808 4.03951 19.306 3.37605 18.8168 2.88687C18.3276 2.39769 17.6642 2.125 16.9724 2.125ZM2.159 18.0837C2.159 18.3655 2.04706 18.6358 1.8478 18.8351C1.64854 19.0343 1.37829 19.1462 1.0965 19.1462C0.814708 19.1462 0.544456 19.0343 0.345199 18.8351C0.145941 18.6358 0.0340001 18.3655 0.0340001 18.0837V12.801C0.0340687 12.2805 0.225156 11.7782 0.57102 11.3892C0.916883 11.0003 1.39347 10.7518 1.91037 10.6909L2.159 10.676H8.01762C7.70843 11.2095 7.51984 11.8043 7.46513 12.4185L7.44813 12.801H2.15688L2.159 18.0837ZM32.9162 19.1462C33.198 19.1462 33.4683 19.0343 33.6676 18.8351C33.8668 18.6358 33.9787 18.3655 33.9787 18.0837V12.801L33.9639 12.5545C33.9035 12.0372 33.6552 11.5601 33.2662 11.2138C32.8772 10.8675 32.3746 10.6761 31.8538 10.676H25.9377C26.248 11.2136 26.4478 11.8299 26.4945 12.4844L26.5051 12.8031H31.8538V18.0837C31.8538 18.3655 31.9657 18.6358 32.1649 18.8351C32.3642 19.0343 32.6345 19.1462 32.9162 19.1462ZM22.2572 10.676C22.7781 10.6761 23.2807 10.8675 23.6697 11.2138C24.0587 11.5601 24.307 12.0372 24.3674 12.5545L24.3801 12.801V18.0837C24.3801 18.3655 24.2682 18.6358 24.0689 18.8351C23.8697 19.0343 23.5994 19.1462 23.3176 19.1462C23.0358 19.1462 22.7656 19.0343 22.5663 18.8351C22.3671 18.6358 22.2551 18.3655 22.2551 18.0837V12.801H11.6981V18.0837C11.6981 18.3655 11.5862 18.6358 11.3869 18.8351C11.1877 19.0343 10.9174 19.1462 10.6356 19.1462C10.3538 19.1462 10.0836 19.0343 9.88432 18.8351C9.68507 18.6358 9.57312 18.3655 9.57312 18.0837V12.801C9.57319 12.2805 9.76428 11.7782 10.1101 11.3892C10.456 11.0003 10.9326 10.7518 11.4495 10.6909L11.6981 10.676H22.2551H22.2572ZM31.637 5.39963C31.637 4.32121 31.2086 3.28695 30.446 2.5244C29.6835 1.76184 28.6492 1.33344 27.5708 1.33344C26.4924 1.33344 25.4581 1.76184 24.6956 2.5244C23.933 3.28695 23.5046 4.32121 23.5046 5.39963C23.5046 6.47805 23.933 7.5123 24.6956 8.27485C25.4581 9.03741 26.4924 9.46581 27.5708 9.46581C28.6492 9.46581 29.6835 9.03741 30.446 8.27485C31.2086 7.5123 31.637 6.47805 31.637 5.39963ZM25.6296 5.39963C25.6296 4.88479 25.8341 4.39104 26.1982 4.027C26.5622 3.66295 27.056 3.45844 27.5708 3.45844C28.0856 3.45844 28.5794 3.66295 28.9434 4.027C29.3075 4.39104 29.512 4.88479 29.512 5.39963C29.512 5.91446 29.3075 6.40821 28.9434 6.77225C28.5794 7.13629 28.0856 7.34081 27.5708 7.34081C27.056 7.34081 26.5622 7.13629 26.1982 6.77225C25.8341 6.40821 25.6296 5.91446 25.6296 5.39963ZM6.409 1.33238C7.48742 1.33238 8.52167 1.76078 9.28423 2.52333C10.0468 3.28589 10.4752 4.32014 10.4752 5.39856C10.4752 6.47698 10.0468 7.51123 9.28423 8.27379C8.52167 9.03635 7.48742 9.46475 6.409 9.46475C5.33058 9.46475 4.29633 9.03635 3.53377 8.27379C2.77121 7.51123 2.34281 6.47698 2.34281 5.39856C2.34281 4.32014 2.77121 3.28589 3.53377 2.52333C4.29633 1.76078 5.33058 1.33238 6.409 1.33238ZM6.409 3.45738C5.89416 3.45738 5.40042 3.66189 5.03637 4.02594C4.67233 4.38998 4.46781 4.88373 4.46781 5.39856C4.46781 5.9134 4.67233 6.40715 5.03637 6.77119C5.40042 7.13523 5.89416 7.33975 6.409 7.33975C6.92383 7.33975 7.41758 7.13523 7.78163 6.77119C8.14567 6.40715 8.35019 5.9134 8.35019 5.39856C8.35019 4.88373 8.14567 4.38998 7.78163 4.02594C7.41758 3.66189 6.92383 3.45738 6.409 3.45738ZM1.0625 21.2712C0.780707 21.2712 0.510457 21.3832 0.311199 21.5824C0.111942 21.7817 0 22.052 0 22.3337V24.4587C0 25.8677 0.559708 27.219 1.556 28.2153C2.55228 29.2115 3.90354 29.7712 5.3125 29.7712H28.6875C30.0965 29.7712 31.4477 29.2115 32.444 28.2153C33.4403 27.219 34 25.8677 34 24.4587V22.3337C34 22.052 33.8881 21.7817 33.6888 21.5824C33.4895 21.3832 33.2193 21.2712 32.9375 21.2712H1.0625ZM2.125 24.4587V23.3962H31.875V24.4587C31.875 25.3041 31.5392 26.1149 30.9414 26.7127C30.3436 27.3104 29.5329 27.6462 28.6875 27.6462H5.3125C4.46712 27.6462 3.65637 27.3104 3.0586 26.7127C2.46083 26.1149 2.125 25.3041 2.125 24.4587Z" fill="#3672AB"/>
</svg>
