<svg width="39" height="39" viewBox="0 0 39 39" fill="none" xmlns="http://www.w3.org/2000/svg">
<path d="M27 15.75C27 17.7391 26.2098 19.6468 24.8033 21.0533C23.3968 22.4598 21.4891 23.25 19.5 23.25C17.5109 23.25 15.6032 22.4598 14.1967 21.0533C12.7902 19.6468 12 17.7391 12 15.75C12 13.7609 12.7902 11.8532 14.1967 10.4467C15.6032 9.04018 17.5109 8.25 19.5 8.25C21.4891 8.25 23.3968 9.04018 24.8033 10.4467C26.2098 11.8532 27 13.7609 27 15.75Z" fill="#3672AB"/>
<path fill-rule="evenodd" clip-rule="evenodd" d="M18.735 38.235C8.73469 37.8338 0.75 29.5988 0.75 19.5C0.75 9.14438 9.14438 0.75 19.5 0.75C29.8556 0.75 38.25 9.14438 38.25 19.5C38.25 29.8556 29.8556 38.25 19.5 38.25C19.4144 38.2506 19.3287 38.2506 19.2431 38.25C19.0734 38.25 18.9037 38.2444 18.735 38.235ZM7.46813 31.3312C7.32794 30.9287 7.28022 30.4997 7.32851 30.0761C7.37681 29.6526 7.51988 29.2453 7.7471 28.8846C7.97433 28.5239 8.27987 28.219 8.64105 27.9926C9.00223 27.7661 9.40978 27.624 9.83344 27.5766C17.1422 26.7675 21.9028 26.8406 29.1759 27.5934C29.6002 27.6376 30.0087 27.778 30.3705 28.004C30.7322 28.2299 31.0377 28.5354 31.2635 28.8972C31.4894 29.259 31.6297 29.6676 31.6737 30.0919C31.7178 30.5161 31.6645 30.9448 31.5178 31.3453C34.6349 28.1915 36.3806 23.9343 36.375 19.5C36.375 10.1803 28.8197 2.625 19.5 2.625C10.1803 2.625 2.625 10.1803 2.625 19.5C2.625 24.1087 4.47281 28.2862 7.46813 31.3312Z" fill="#3672AB"/>
</svg>
