<svg width="34" height="31" viewBox="0 0 34 31" fill="none" xmlns="http://www.w3.org/2000/svg">
<path d="M16.9724 0.848316C18.2275 0.848316 19.4312 1.3469 20.3187 2.2344C21.2062 3.12189 21.7048 4.32559 21.7048 5.58069C21.7048 6.8358 21.2062 8.03949 20.3187 8.92698C19.4312 9.81448 18.2275 10.3131 16.9724 10.3131C15.717 10.3131 14.513 9.81437 13.6253 8.92667C12.7376 8.03898 12.2389 6.83501 12.2389 5.57963C12.2389 4.32424 12.7376 3.12027 13.6253 2.23258C14.513 1.34489 15.717 0.848316 16.9724 0.848316ZM16.9724 2.97332C16.2809 2.97332 15.6177 3.24802 15.1287 3.737C14.6397 4.22598 14.365 4.88917 14.365 5.58069C14.365 6.27221 14.6397 6.93541 15.1287 7.42438C15.6177 7.91336 16.2809 8.18807 16.9724 8.18807C17.6642 8.18807 18.3276 7.91325 18.8168 7.42407C19.306 6.9349 19.5808 6.27143 19.5808 5.57963C19.5808 4.88783 19.306 4.22436 18.8168 3.73518C18.3276 3.24601 17.6642 2.97332 16.9724 2.97332ZM2.159 18.9321C2.159 19.2139 2.04706 19.4841 1.8478 19.6834C1.64854 19.8826 1.37829 19.9946 1.0965 19.9946C0.814708 19.9946 0.544456 19.8826 0.345199 19.6834C0.145941 19.4841 0.0340001 19.2139 0.0340001 18.9321V13.6493C0.0340687 13.1288 0.225156 12.6265 0.57102 12.2375C0.916883 11.8486 1.39347 11.6001 1.91037 11.5392L2.159 11.5243H8.01762C7.70843 12.0578 7.51984 12.6526 7.46513 13.2668L7.44813 13.6493H2.15688L2.159 18.9321ZM32.9162 19.9946C33.198 19.9946 33.4683 19.8826 33.6676 19.6834C33.8668 19.4841 33.9787 19.2139 33.9787 18.9321V13.6493L33.9639 13.4028C33.9035 12.8855 33.6552 12.4084 33.2662 12.0621C32.8772 11.7158 32.3746 11.5244 31.8538 11.5243H25.9377C26.248 12.0619 26.4478 12.6782 26.4945 13.3327L26.5051 13.6514H31.8538V18.9321C31.8538 19.2139 31.9657 19.4841 32.1649 19.6834C32.3642 19.8826 32.6345 19.9946 32.9162 19.9946ZM22.2572 11.5243C22.7781 11.5244 23.2807 11.7158 23.6697 12.0621C24.0587 12.4084 24.307 12.8855 24.3674 13.4028L24.3801 13.6493V18.9321C24.3801 19.2139 24.2682 19.4841 24.0689 19.6834C23.8697 19.8826 23.5994 19.9946 23.3176 19.9946C23.0358 19.9946 22.7656 19.8826 22.5663 19.6834C22.3671 19.4841 22.2551 19.2139 22.2551 18.9321V13.6493H11.6981V18.9321C11.6981 19.2139 11.5862 19.4841 11.3869 19.6834C11.1877 19.8826 10.9174 19.9946 10.6356 19.9946C10.3538 19.9946 10.0836 19.8826 9.88432 19.6834C9.68507 19.4841 9.57312 19.2139 9.57312 18.9321V13.6493C9.57319 13.1288 9.76428 12.6265 10.1101 12.2375C10.456 11.8486 10.9326 11.6001 11.4495 11.5392L11.6981 11.5243H22.2551H22.2572ZM31.637 6.24794C31.637 5.16952 31.2086 4.13527 30.446 3.37271C29.6835 2.61015 28.6492 2.18175 27.5708 2.18175C26.4924 2.18175 25.4581 2.61015 24.6956 3.37271C23.933 4.13527 23.5046 5.16952 23.5046 6.24794C23.5046 7.32636 23.933 8.36061 24.6956 9.12317C25.4581 9.88573 26.4924 10.3141 27.5708 10.3141C28.6492 10.3141 29.6835 9.88573 30.446 9.12317C31.2086 8.36061 31.637 7.32636 31.637 6.24794ZM25.6296 6.24794C25.6296 5.73311 25.8341 5.23936 26.1982 4.87531C26.5622 4.51127 27.056 4.30675 27.5708 4.30675C28.0856 4.30675 28.5794 4.51127 28.9434 4.87531C29.3075 5.23936 29.512 5.73311 29.512 6.24794C29.512 6.76278 29.3075 7.25652 28.9434 7.62057C28.5794 7.98461 28.0856 8.18913 27.5708 8.18913C27.056 8.18913 26.5622 7.98461 26.1982 7.62057C25.8341 7.25652 25.6296 6.76278 25.6296 6.24794ZM6.409 2.18069C7.48742 2.18069 8.52167 2.60909 9.28423 3.37165C10.0468 4.13421 10.4752 5.16846 10.4752 6.24688C10.4752 7.3253 10.0468 8.35955 9.28423 9.12211C8.52167 9.88467 7.48742 10.3131 6.409 10.3131C5.33058 10.3131 4.29633 9.88467 3.53377 9.12211C2.77121 8.35955 2.34281 7.3253 2.34281 6.24688C2.34281 5.16846 2.77121 4.13421 3.53377 3.37165C4.29633 2.60909 5.33058 2.18069 6.409 2.18069ZM6.409 4.30569C5.89416 4.30569 5.40042 4.51021 5.03637 4.87425C4.67233 5.23829 4.46781 5.73204 4.46781 6.24688C4.46781 6.76171 4.67233 7.25546 5.03637 7.61951C5.40042 7.98355 5.89416 8.18807 6.409 8.18807C6.92383 8.18807 7.41758 7.98355 7.78163 7.61951C8.14567 7.25546 8.35019 6.76171 8.35019 6.24688C8.35019 5.73204 8.14567 5.23829 7.78163 4.87425C7.41758 4.51021 6.92383 4.30569 6.409 4.30569ZM1.0625 22.1196C0.780707 22.1196 0.510457 22.2315 0.311199 22.4308C0.111942 22.63 0 22.9003 0 23.1821V25.3071C0 26.716 0.559708 28.0673 1.556 29.0636C2.55228 30.0599 3.90354 30.6196 5.3125 30.6196H28.6875C30.0965 30.6196 31.4477 30.0599 32.444 29.0636C33.4403 28.0673 34 26.716 34 25.3071V23.1821C34 22.9003 33.8881 22.63 33.6888 22.4308C33.4895 22.2315 33.2193 22.1196 32.9375 22.1196H1.0625ZM2.125 25.3071V24.2446H31.875V25.3071C31.875 26.1524 31.5392 26.9632 30.9414 27.561C30.3436 28.1587 29.5329 28.4946 28.6875 28.4946H5.3125C4.46712 28.4946 3.65637 28.1587 3.0586 27.561C2.46082 26.9632 2.125 26.1524 2.125 25.3071Z" fill="#3D3D3D"/>
</svg>
