<svg width="45" height="45" viewBox="0 0 45 45" fill="none" xmlns="http://www.w3.org/2000/svg">
<rect width="45" height="45" fill="white"/>
<path d="M30 18.75C30 20.7391 29.2098 22.6468 27.8033 24.0533C26.3968 25.4598 24.4891 26.25 22.5 26.25C20.5109 26.25 18.6032 25.4598 17.1967 24.0533C15.7902 22.6468 15 20.7391 15 18.75C15 16.7609 15.7902 14.8532 17.1967 13.4467C18.6032 12.0402 20.5109 11.25 22.5 11.25C24.4891 11.25 26.3968 12.0402 27.8033 13.4467C29.2098 14.8532 30 16.7609 30 18.75Z" fill="black" fill-opacity="0.3"/>
<path fill-rule="evenodd" clip-rule="evenodd" d="M21.735 41.235C11.7347 40.8338 3.75 32.5988 3.75 22.5C3.75 12.1444 12.1444 3.75 22.5 3.75C32.8556 3.75 41.25 12.1444 41.25 22.5C41.25 32.8556 32.8556 41.25 22.5 41.25C22.4144 41.2506 22.3287 41.2506 22.2431 41.25C22.0734 41.25 21.9037 41.2444 21.735 41.235ZM10.4681 34.3312C10.3279 33.9287 10.2802 33.4997 10.3285 33.0761C10.3768 32.6526 10.5199 32.2453 10.7471 31.8846C10.9743 31.5239 11.2799 31.219 11.6411 30.9926C12.0022 30.7661 12.4098 30.624 12.8334 30.5766C20.1422 29.7675 24.9028 29.8406 32.1759 30.5934C32.6002 30.6376 33.0087 30.778 33.3705 31.004C33.7322 31.2299 34.0377 31.5354 34.2635 31.8972C34.4894 32.259 34.6297 32.6676 34.6737 33.0919C34.7178 33.5161 34.6645 33.9448 34.5178 34.3453C37.6349 31.1915 39.3806 26.9343 39.375 22.5C39.375 13.1803 31.8197 5.625 22.5 5.625C13.1803 5.625 5.625 13.1803 5.625 22.5C5.625 27.1087 7.47281 31.2862 10.4681 34.3312Z" fill="black" fill-opacity="0.3"/>
</svg>
