<svg width="23" height="23" viewBox="0 0 23 23" fill="none" xmlns="http://www.w3.org/2000/svg">
<path d="M11.4994 9.66017C13.3889 9.66017 14.9206 8.14774 14.9206 6.28205C14.9206 4.41637 13.3889 2.90393 11.4994 2.90393C9.60987 2.90393 8.07812 4.41637 8.07812 6.28205C8.07812 8.14774 9.60987 9.66017 11.4994 9.66017Z" fill="#3672AB"/>
<path d="M6.31063 6.61962H6.65563V6.31056C6.65773 5.41184 6.91128 4.53163 7.3876 3.76951C7.86393 3.00739 8.54402 2.39377 9.35094 1.99806C9.11206 1.44791 8.72862 0.972721 8.24136 0.622979C7.7541 0.273237 7.18121 0.0619986 6.58354 0.0116989C5.98587 -0.0386008 5.38573 0.0739166 4.84687 0.337301C4.30802 0.600685 3.85055 1.0051 3.52308 1.50759C3.1956 2.01009 3.01034 2.5919 2.98696 3.19123C2.96359 3.79055 3.10298 4.38502 3.39033 4.91149C3.67768 5.43796 4.10226 5.87678 4.61897 6.18133C5.13568 6.48588 5.72523 6.64479 6.32501 6.64119L6.31063 6.61962ZM16.3587 6.28181V6.59087H16.7037C17.2955 6.58493 17.8748 6.41957 18.3805 6.11218C18.8862 5.80479 19.2997 5.36676 19.5775 4.84417C19.8553 4.32159 19.987 3.73379 19.9589 3.14264C19.9307 2.55149 19.7437 1.97887 19.4176 1.48503C19.0914 0.991195 18.6382 0.594416 18.1056 0.336458C17.5729 0.0785004 16.9806 -0.0310952 16.3909 0.019207C15.8012 0.0695092 15.236 0.277849 14.7548 0.622296C14.2735 0.966744 13.894 1.43456 13.6562 1.9765C14.4634 2.37066 15.1443 2.98273 15.6218 3.74353C16.0994 4.50433 16.3547 5.38355 16.3587 6.28181ZM14.5834 9.99775C16.0125 10.2806 17.3943 10.7646 18.6875 11.4352C18.8697 11.5353 19.0347 11.6639 19.1762 11.8162H23V9.35806C23.0007 9.26378 22.9756 9.1711 22.9275 9.09003C22.8793 9.00896 22.81 8.94258 22.7269 8.89806C20.864 7.92366 18.7917 7.41793 16.6894 7.42462H16.215C15.9659 8.43714 15.393 9.34063 14.5834 9.99775ZM3.25595 13.2106C3.25463 12.8486 3.35239 12.4931 3.53863 12.1827C3.72487 11.8723 3.99249 11.6188 4.31251 11.4496C5.60574 10.779 6.9875 10.295 8.41657 10.0121C7.6109 9.36059 7.03838 8.46524 6.78501 7.46056H6.31063C4.20831 7.45387 2.13603 7.9596 0.273139 8.934C0.190029 8.97852 0.12066 9.0449 0.0725251 9.12597C0.0243899 9.20704 -0.000683043 9.29972 1.41534e-05 9.394V13.9868H3.25595V13.2106ZM13.9869 17.3577H18.2706V18.364H13.9869V17.3577Z" fill="#3672AB"/>
<path d="M22.1427 13.4546H17.2048V12.7358C17.2048 12.5452 17.1291 12.3624 16.9943 12.2276C16.8595 12.0928 16.6767 12.0171 16.4861 12.0171C16.2955 12.0171 16.1127 12.0928 15.9779 12.2276C15.8431 12.3624 15.7673 12.5452 15.7673 12.7358V13.4546H14.373V11.4205C13.4273 11.2219 12.4642 11.1184 11.498 11.1114C9.22943 11.102 6.9933 11.6499 4.98611 12.7071C4.8967 12.7535 4.82186 12.8236 4.76986 12.9099C4.71785 12.9962 4.69071 13.0951 4.69142 13.1958V17.228H9.80173V21.6052C9.80173 21.7958 9.87745 21.9786 10.0122 22.1134C10.147 22.2482 10.3299 22.3239 10.5205 22.3239H22.1427C22.3333 22.3239 22.5161 22.2482 22.6509 22.1134C22.7857 21.9786 22.8614 21.7958 22.8614 21.6052V14.1733C22.8614 13.9827 22.7857 13.7999 22.6509 13.6651C22.5161 13.5303 22.3333 13.4546 22.1427 13.4546ZM21.4239 20.9008H11.2392V14.8921H15.7673V15.5461C15.7673 15.7368 15.8431 15.9196 15.9779 16.0544C16.1127 16.1892 16.2955 16.2649 16.4861 16.2649C16.6767 16.2649 16.8595 16.1892 16.9943 16.0544C17.1291 15.9196 17.2048 15.7368 17.2048 15.5461V14.8921H21.4239V20.9008Z" fill="#3672AB"/>
</svg>
