<svg width="21" height="21" viewBox="0 0 21 21" fill="none" xmlns="http://www.w3.org/2000/svg">
<path d="M9.011 0H15.011V2H9.011V0ZM19.03 6.389L20.464 4.955L19.05 3.541L17.617 4.974C16.0469 3.71581 14.1001 3.02076 12.0882 3.00009C10.0763 2.97942 8.11561 3.63433 6.52 4.86L7.94 6.3C9.12639 5.45736 10.5448 5.00319 12 5L12.01 5.001V11.981L16.963 16.939C15.9852 17.9214 14.7378 18.5914 13.3788 18.8642C12.0199 19.137 10.6105 19.0002 9.32933 18.4713C8.04816 17.9424 6.95282 17.045 6.1821 15.893C5.41139 14.741 4.99998 13.3861 5 12H8L4 8L0 12H3C2.99864 13.4382 3.34194 14.8557 4.00116 16.1339C4.66038 17.4121 5.6163 18.5137 6.78886 19.3464C7.96142 20.1791 9.31646 20.7187 10.7405 20.92C12.1645 21.1212 13.616 20.9783 14.9734 20.5032C16.3308 20.028 17.5546 19.2345 18.5422 18.1891C19.5298 17.1437 20.2526 15.8768 20.6498 14.4946C21.0471 13.1124 21.1073 11.6551 20.8255 10.2448C20.5437 8.83457 19.928 7.51236 19.03 6.389Z" fill="#3672AB"/>
</svg>
