<svg width="20" height="16" viewBox="0 0 20 16" fill="none" xmlns="http://www.w3.org/2000/svg">
<path d="M16.75 16H3.25C2.41986 16.0001 1.62117 15.6824 1.01777 15.1123C0.414367 14.5422 0.0519987 13.7628 0.00500013 12.934L1.69987e-08 12.75V2.25C-7.00219e-05 1.67987 0.216295 1.13098 0.605369 0.714247C0.994443 0.297514 1.52721 0.0440221 2.096 0.00500013L2.25 1.69987e-08H14.75C15.3201 -7.00219e-05 15.869 0.216295 16.2858 0.605369C16.7025 0.994443 16.956 1.52721 16.995 2.096L17 2.25V3H17.75C18.3201 2.99993 18.869 3.2163 19.2858 3.60537C19.7025 3.99444 19.956 4.52721 19.995 5.096L20 5.25V12.75C20.0001 13.5801 19.6824 14.3788 19.1123 14.9822C18.5422 15.5856 17.7628 15.948 16.934 15.995L16.75 16ZM3.25 14.5H16.75C17.1893 14.5 17.6126 14.3347 17.9357 14.037C18.2588 13.7392 18.4581 13.3309 18.494 12.893L18.5 12.75V5.25C18.5 5.06876 18.4344 4.89366 18.3152 4.75707C18.1961 4.62048 18.0316 4.53165 17.852 4.507L17.75 4.5H17V12.25C17 12.4312 16.9344 12.6063 16.8152 12.7429C16.6961 12.8795 16.5316 12.9684 16.352 12.993L16.25 13C16.0688 13 15.8937 12.9344 15.7571 12.8152C15.6205 12.6961 15.5316 12.5316 15.507 12.352L15.5 12.25V2.25C15.5 2.06876 15.4344 1.89366 15.3152 1.75707C15.1961 1.62048 15.0316 1.53165 14.852 1.507L14.75 1.5H2.25C2.06876 1.50001 1.89366 1.56564 1.75707 1.68477C1.62048 1.80389 1.53165 1.96845 1.507 2.148L1.5 2.25V12.75C1.50002 13.1892 1.66517 13.6123 1.96268 13.9354C2.26019 14.2585 2.6683 14.4579 3.106 14.494L3.25 14.5ZM10.246 10.5H13.252C13.442 10.5001 13.6249 10.5722 13.7638 10.702C13.9026 10.8317 13.9871 11.0093 14 11.1989C14.013 11.3885 13.9535 11.5759 13.8336 11.7233C13.7137 11.8707 13.5422 11.9671 13.354 11.993L13.252 12H10.246C10.056 11.9999 9.87306 11.9278 9.73421 11.798C9.59536 11.6683 9.51093 11.4907 9.49797 11.3011C9.48502 11.1115 9.54452 10.9241 9.66443 10.7767C9.78435 10.6293 9.95575 10.5329 10.144 10.507L10.246 10.5ZM7.243 7.005C7.44191 7.005 7.63268 7.08402 7.77333 7.22467C7.91398 7.36532 7.993 7.55609 7.993 7.755V11.25C7.993 11.4489 7.91398 11.6397 7.77333 11.7803C7.63268 11.921 7.44191 12 7.243 12H3.748C3.54909 12 3.35832 11.921 3.21767 11.7803C3.07702 11.6397 2.998 11.4489 2.998 11.25V7.755C2.998 7.55609 3.07702 7.36532 3.21767 7.22467C3.35832 7.08402 3.54909 7.005 3.748 7.005H7.243ZM6.493 8.505H4.498V10.5H6.493V8.505ZM10.246 7.005H13.252C13.442 7.00506 13.6249 7.07724 13.7638 7.20697C13.9026 7.3367 13.9871 7.5143 14 7.70388C14.013 7.89346 13.9535 8.08089 13.8336 8.2283C13.7137 8.37571 13.5422 8.4721 13.354 8.498L13.252 8.505H10.246C10.0546 8.50695 9.86974 8.43566 9.72922 8.30573C9.58869 8.1758 9.50315 7.99707 9.49012 7.80612C9.47708 7.61518 9.53753 7.42648 9.6591 7.27866C9.78066 7.13084 9.95413 7.03508 10.144 7.011L10.246 7.005ZM3.748 3.502H13.252C13.4434 3.50005 13.6283 3.57134 13.7688 3.70127C13.9093 3.8312 13.9948 4.00993 14.0079 4.20088C14.0209 4.39182 13.9605 4.58052 13.8389 4.72834C13.7173 4.87616 13.5439 4.97192 13.354 4.996L13.252 5.002H3.748C3.55798 5.00194 3.37506 4.92976 3.23621 4.80003C3.09736 4.6703 3.01293 4.4927 2.99997 4.30312C2.98702 4.11354 3.04652 3.92611 3.16643 3.7787C3.28635 3.63129 3.45775 3.5349 3.646 3.509L3.748 3.502Z" fill="#3D3D3D"/>
</svg>
