<svg width="30" height="30" viewBox="0 0 30 30" fill="none" xmlns="http://www.w3.org/2000/svg">
<path d="M6.5625 14.0625H25.3125C25.5611 14.0625 25.7996 14.1613 25.9754 14.3371C26.1512 14.5129 26.25 14.7514 26.25 15C26.25 15.2486 26.1512 15.4871 25.9754 15.6629C25.7996 15.8387 25.5611 15.9375 25.3125 15.9375H6.5625C6.31386 15.9375 6.0754 15.8387 5.89959 15.6629C5.72377 15.4871 5.625 15.2486 5.625 15C5.625 14.7514 5.72377 14.5129 5.89959 14.3371C6.0754 14.1613 6.31386 14.0625 6.5625 14.0625Z" fill="black"/>
<path d="M6.9523 15L14.7279 22.7737C14.904 22.9498 15.0029 23.1885 15.0029 23.4375C15.0029 23.6864 14.904 23.9252 14.7279 24.1012C14.5519 24.2773 14.3131 24.3761 14.0642 24.3761C13.8152 24.3761 13.5765 24.2773 13.4004 24.1012L4.96293 15.6637C4.87562 15.5766 4.80635 15.4732 4.75909 15.3593C4.71183 15.2454 4.6875 15.1233 4.6875 15C4.6875 14.8766 4.71183 14.7545 4.75909 14.6407C4.80635 14.5268 4.87562 14.4233 4.96293 14.3362L13.4004 5.89871C13.5765 5.72268 13.8152 5.62378 14.0642 5.62378C14.3131 5.62378 14.5519 5.72268 14.7279 5.89871C14.904 6.07475 15.0029 6.31351 15.0029 6.56246C15.0029 6.81142 14.904 7.05018 14.7279 7.22621L6.9523 15Z" fill="black"/>
</svg>
