<svg width="40" height="47" viewBox="0 0 40 47" fill="none" xmlns="http://www.w3.org/2000/svg">
<path d="M40 40H24.6933C24.4447 39.3027 24.0442 38.6694 23.5208 38.1459C22.9973 37.6224 22.364 37.2219 21.6667 36.9733V28.3333H33.3333C34.217 28.332 35.0641 27.9804 35.6889 27.3556C36.3137 26.7307 36.6653 25.8836 36.6667 25V3.33333C36.6653 2.44968 36.3137 1.60261 35.6889 0.977771C35.0641 0.352936 34.217 0.0013225 33.3333 0H6.66667C5.78302 0.0013225 4.93594 0.352936 4.3111 0.977771C3.68627 1.60261 3.33466 2.44968 3.33333 3.33333V25C3.33466 25.8836 3.68627 26.7307 4.3111 27.3556C4.93594 27.9804 5.78302 28.332 6.66667 28.3333H18.3333V36.9733C17.636 37.2219 17.0027 37.6224 16.4792 38.1459C15.9558 38.6694 15.5553 39.3027 15.3067 40H0V43.3333H15.3067C15.6461 44.3076 16.2803 45.152 17.1212 45.7496C17.9622 46.3472 18.9683 46.6682 20 46.6682C21.0317 46.6682 22.0378 46.3472 22.8788 45.7496C23.7197 45.152 24.3539 44.3076 24.6933 43.3333H40V40ZM33.3333 16.6667H6.66667V11.6667H33.3333V16.6667ZM33.3333 3.33333V8.33333H6.66667V3.33333H33.3333ZM6.66667 20H33.3333V25H6.66667V20ZM20 43.3333C19.6704 43.3333 19.3481 43.2356 19.074 43.0524C18.8 42.8693 18.5863 42.609 18.4602 42.3045C18.3341 41.9999 18.301 41.6648 18.3654 41.3415C18.4297 41.0182 18.5884 40.7212 18.8215 40.4881C19.0546 40.2551 19.3515 40.0963 19.6748 40.032C19.9981 39.9677 20.3333 40.0007 20.6378 40.1269C20.9423 40.253 21.2026 40.4666 21.3858 40.7407C21.5689 41.0148 21.6667 41.337 21.6667 41.6667C21.6667 42.1087 21.4911 42.5326 21.1785 42.8452C20.866 43.1577 20.442 43.3333 20 43.3333Z" fill="#B3B3B3"/>
</svg>
