<svg width="39" height="39" viewBox="0 0 39 39" fill="none" xmlns="http://www.w3.org/2000/svg">
<path d="M34.125 19.5C34.1298 22.4035 33.2662 25.2421 31.6452 27.651C30.3084 29.6448 28.501 31.2785 26.3827 32.4077C24.2644 33.5368 21.9005 34.1267 19.5 34.125C17.0995 34.1267 14.7356 33.5368 12.6173 32.4077C10.499 31.2785 8.69155 29.6448 7.35475 27.651C6.08194 25.7537 5.27134 23.5846 4.98795 21.3175C4.70455 19.0504 4.95624 16.7485 5.72284 14.5962C6.48944 12.444 7.74962 10.5013 9.40236 8.9238C11.0551 7.34635 13.0544 6.17806 15.2401 5.51258C17.4257 4.84709 19.7369 4.70293 21.9883 5.09165C24.2397 5.48036 26.3687 6.39115 28.2046 7.75098C30.0406 9.11082 31.5324 10.8819 32.5606 12.9222C33.5887 14.9625 34.1245 17.2153 34.125 19.5Z" stroke="#63BE09" stroke-width="1.5"/>
<path d="M21.5302 14.625C21.5302 15.7463 20.6202 16.6563 19.4989 16.6563V19.0938C20.6841 19.0938 21.8207 18.6229 22.6588 17.7849C23.4968 16.9468 23.9676 15.8102 23.9676 14.625H21.5302ZM19.4989 16.6563C18.3777 16.6563 17.4677 15.7463 17.4677 14.625H15.0302C15.0302 15.8102 15.501 16.9468 16.339 17.7849C17.1771 18.6229 18.3137 19.0938 19.4989 19.0938V16.6563ZM17.4677 14.625C17.4677 13.5038 18.3777 12.5938 19.4989 12.5938V10.1562C18.3137 10.1562 17.1771 10.6271 16.339 11.4651C15.501 12.3032 15.0302 13.4398 15.0302 14.625H17.4677ZM19.4989 12.5938C20.6202 12.5938 21.5302 13.5038 21.5302 14.625H23.9676C23.9676 13.4398 23.4968 12.3032 22.6588 11.4651C21.8207 10.6271 20.6841 10.1562 19.4989 10.1562V12.5938ZM8.39366 29.016L7.22528 28.6683L7.03516 29.3053L7.46903 29.809L8.39366 29.016ZM30.6041 29.016L31.5304 29.8106L31.9626 29.3069L31.7725 28.6683L30.6041 29.016ZM14.6239 25.5938H24.3739V23.1563H14.6239V25.5938ZM14.6239 23.1563C12.9617 23.1563 11.3439 23.6928 10.0109 24.6858C8.67794 25.6789 7.701 27.0756 7.22528 28.6683L9.56203 29.3638C9.8879 28.2744 10.5564 27.3192 11.4683 26.6401C12.3802 25.9609 13.4869 25.594 14.6239 25.5938V23.1563ZM19.4989 32.9063C17.5642 32.9085 15.6521 32.4909 13.8944 31.6824C12.1368 30.8738 10.5755 29.6936 9.31828 28.223L7.46903 29.809C8.95503 31.5461 10.8 32.9419 12.8768 33.8972C14.9537 34.8524 17.2129 35.3459 19.4989 35.3438V32.9063ZM24.3739 25.5938C26.7626 25.5938 28.7858 27.183 29.4358 29.3638L31.7725 28.6683C31.2968 27.0756 30.3199 25.6789 28.9869 24.6858C27.6539 23.6928 26.0361 23.1563 24.3739 23.1563V25.5938ZM29.6795 28.223C28.4223 29.6936 26.861 30.8738 25.1034 31.6824C23.3457 32.4909 21.4336 32.9085 19.4989 32.9063V35.3438C21.7849 35.3459 24.0441 34.8524 26.121 33.8972C28.1978 32.9419 30.0444 31.5477 31.5304 29.8106L29.6795 28.223Z" fill="#63BE09"/>
</svg>
