<svg width="39" height="39" viewBox="0 0 39 39" fill="none" xmlns="http://www.w3.org/2000/svg">
<path d="M30.25 15.6216C30.2548 18.5251 29.3912 21.3637 27.7702 23.7726C26.4334 25.7664 24.626 27.4001 22.5077 28.5293C20.3894 29.6584 18.0255 30.2483 15.625 30.2466C13.2245 30.2483 10.8606 29.6584 8.74232 28.5293C6.62401 27.4001 4.81655 25.7664 3.47975 23.7726C2.20694 21.8753 1.39634 19.7061 1.11295 17.4391C0.829553 15.172 1.08124 12.8701 1.84784 10.7178C2.61444 8.56556 3.87462 6.62283 5.52736 5.04538C7.1801 3.46794 9.17943 2.29964 11.3651 1.63416C13.5507 0.968676 15.8619 0.824514 18.1133 1.21323C20.3647 1.60195 22.4937 2.51273 24.3296 3.87256C26.1656 5.2324 27.6574 7.00346 28.6856 9.04377C29.7137 11.0841 30.2495 13.3369 30.25 15.6216Z" stroke="#BE1F09" stroke-width="1.5"/>
<path d="M17.6552 10.7466C17.6552 11.8678 16.7452 12.7778 15.6239 12.7778V15.2153C16.8091 15.2153 17.9457 14.7445 18.7838 13.9065C19.6218 13.0684 20.0926 11.9318 20.0926 10.7466H17.6552ZM15.6239 12.7778C14.5027 12.7778 13.5927 11.8678 13.5927 10.7466H11.1552C11.1552 11.9318 11.626 13.0684 12.464 13.9065C13.3021 14.7445 14.4387 15.2153 15.6239 15.2153V12.7778ZM13.5927 10.7466C13.5927 9.62533 14.5027 8.71533 15.6239 8.71533V6.27783C14.4387 6.27783 13.3021 6.74865 12.464 7.5867C11.626 8.42475 11.1552 9.5614 11.1552 10.7466H13.5927ZM15.6239 8.71533C16.7452 8.71533 17.6552 9.62533 17.6552 10.7466H20.0926C20.0926 9.5614 19.6218 8.42475 18.7838 7.5867C17.9457 6.74865 16.8091 6.27783 15.6239 6.27783V8.71533ZM4.51866 25.1376L3.35028 24.7898L3.16016 25.4268L3.59403 25.9306L4.51866 25.1376ZM26.7291 25.1376L27.6554 25.9322L28.0876 25.4285L27.8975 24.7898L26.7291 25.1376ZM10.7489 21.7153H20.4989V19.2778H10.7489V21.7153ZM10.7489 19.2778C9.08669 19.2779 7.46887 19.8144 6.13591 20.8074C4.80294 21.8005 3.826 23.1971 3.35028 24.7898L5.68703 25.4853C6.0129 24.396 6.68142 23.4408 7.59333 22.7616C8.50523 22.0825 9.61187 21.7155 10.7489 21.7153V19.2778ZM15.6239 29.0278C13.6892 29.0301 11.7771 28.6125 10.0194 27.8039C8.26177 26.9954 6.70048 25.8151 5.44328 24.3446L3.59403 25.9306C5.08003 27.6677 6.92503 29.0635 9.00185 30.0187C11.0787 30.974 13.3379 31.4675 15.6239 31.4653V29.0278ZM20.4989 21.7153C22.8876 21.7153 24.9108 23.3046 25.5608 25.4853L27.8975 24.7898C27.4218 23.1971 26.4449 21.8005 25.1119 20.8074C23.7789 19.8144 22.1611 19.2779 20.4989 19.2778V21.7153ZM25.8045 24.3446C24.5473 25.8151 22.986 26.9954 21.2284 27.8039C19.4707 28.6125 17.5586 29.0301 15.6239 29.0278V31.4653C17.9099 31.4675 20.1691 30.974 22.246 30.0187C24.3228 29.0635 26.1694 27.6693 27.6554 25.9322L25.8045 24.3446Z" fill="#BE1F09"/>
</svg>
